# xmcd
#
# Track frame offsets: 
#        150
#        20982
#        43265
#        65352
#        86102
#        105065
#        119260
#        139177
#        160430
#        178095
#        201340
#        224212
#        246255
#        262690
#
# Disc length: 3853 seconds
#
# Revision: 33
# Processed by: cddbd v1.5.2PL0 Copyright (c) Steve Scherf et al.
# Submitted via: ExactAudioCopy v1.0b3
#
DISCID=d40f0b0e
DTITLE=Southern All Stars - BALLAD3 - THE ALBUM OF LOVE - DISC2
DYEAR=2000
DGENRE=Jazz+Funk
TTITLE0=?????
TTITLE1=???? 2
TTITLE2=???? 3
TTITLE3=???? 4
TTITLE4=???? 5
TTITLE5=???? 6
TTITLE6=???? 7
TTITLE7=???? 8
TTITLE8=???? 9
TTITLE9=???? 10
TTITLE10=???? 11
TTITLE11=???? 12
TTITLE12=???? 13
TTITLE13=???? 14
EXTD=DISK1\t YEAR: 2000
EXTT0=
EXTT1=
EXTT2=
EXTT3=
EXTT4=
EXTT5=
EXTT6=
EXTT7=
EXTT8=
EXTT9=
EXTT10=
EXTT11=
EXTT12=
EXTT13=
PLAYORDER=
